<?xml version="1.0" encoding="UTF-8" standalone="no"?> <svg xmlns="http://www.w3.org/2000/svg" viewBox="0 0 32 32" width="16" height="16"><title>Gas Station</title><g id="Gas_Station" data-name="Gas Station"><path d="M27.121,7.66l-2.39-2.391a1,1,0,0,0-1.414,1.414l2.39,2.391A1.008,1.008,0,0,1,26,9.781V20.69a.5.5,0,0,1-1,0V15.952a3.422,3.422,0,0,0-3-3.385V5a3,3,0,0,0-3-3H8A3,3,0,0,0,5,5V24.269A2,2,0,0,0,4,26v2a2,2,0,0,0,2,2H21a2,2,0,0,0,2-2V26a2,2,0,0,0-1-1.731V14.6a1.426,1.426,0,0,1,1,1.355V20.69a2.5,2.5,0,0,0,5,0V9.781A2.976,2.976,0,0,0,27.121,7.66ZM21,28H6V26a1,1,0,0,0,1-1V5A1,1,0,0,1,8,4H19a1,1,0,0,1,1,1V25a1,1,0,0,0,1,1Z"/><path d="M18,5H9A1,1,0,0,0,8,6v5a1,1,0,0,0,1,1h9a1,1,0,0,0,1-1V6A1,1,0,0,0,18,5Zm-1,5H10V7h7Z"/></g></svg>