<?xml version="1.0" encoding="UTF-8" standalone="no"?> <svg width="16" height="16" viewBox="0 0 101 101" fill="none" xmlns="http://www.w3.org/2000/svg">
<path d="M93.995 22.82C93.995 16.373 88.749 11.127 82.302 11.127C75.855 11.127 70.609 16.373 70.609 22.82C70.609 28.758 75.062 33.666 80.801 34.406V48.5H52.5V34.406C58.24 33.666 62.693 28.758 62.693 22.82C62.693 16.373 57.447 11.127 51 11.127C44.553 11.127 39.307 16.373 39.307 22.82C39.307 28.758 43.76 33.666 49.5 34.406V48.5H21.198V34.406C26.938 33.666 31.391 28.758 31.391 22.82C31.391 16.373 26.145 11.127 19.698 11.127C13.25 11.127 8.005 16.373 8.005 22.82C8.005 28.758 12.458 33.666 18.198 34.406V65.594C12.458 66.334 8.005 71.241 8.005 77.179C8.005 83.626 13.251 88.872 19.698 88.872C26.145 88.872 31.391 83.626 31.391 77.179C31.391 71.241 26.938 66.334 21.198 65.594V51.5H49.5V65.594C43.76 66.334 39.307 71.241 39.307 77.179C39.307 83.626 44.553 88.872 51 88.872C57.447 88.872 62.693 83.626 62.693 77.179C62.693 71.241 58.24 66.334 52.5 65.594V51.5H82.302C83.13 51.5 83.802 50.828 83.802 50V34.406C89.542 33.666 93.995 28.758 93.995 22.82ZM42.307 22.82C42.307 18.027 46.206 14.127 51 14.127C55.794 14.127 59.693 18.026 59.693 22.82C59.693 27.614 55.794 31.513 51 31.513C46.207 31.513 42.307 27.613 42.307 22.82ZM11.005 22.82C11.005 18.027 14.905 14.127 19.698 14.127C24.491 14.127 28.391 18.026 28.391 22.82C28.391 27.614 24.492 31.513 19.698 31.513C14.904 31.513 11.005 27.613 11.005 22.82ZM28.391 77.179C28.391 81.973 24.492 85.872 19.698 85.872C14.904 85.872 11.005 81.973 11.005 77.179C11.005 72.386 14.905 68.487 19.698 68.487C24.491 68.487 28.391 72.386 28.391 77.179ZM59.693 77.179C59.693 81.973 55.794 85.872 51 85.872C46.207 85.872 42.307 81.973 42.307 77.179C42.307 72.386 46.206 68.487 51 68.487C55.794 68.486 59.693 72.386 59.693 77.179ZM82.302 31.513C77.509 31.513 73.61 27.613 73.61 22.82C73.61 18.027 77.509 14.127 82.302 14.127C87.096 14.127 90.995 18.026 90.995 22.82C90.995 27.614 87.096 31.513 82.302 31.513Z" fill="black" stroke="black" stroke-width="2.2"/>
</svg>
